Coordinates
version=1
nRows=19
nColumns=36
inDegrees=yes

Units are S.I. units (second, meters, Newtons, ...)
If the header above contains a line with 'inDegrees', this indicates whether rotational values are in degrees (yes) or radians (no).

endheader
time	pelvis_tilt	pelvis_list	pelvis_rotation	pelvis_tx	pelvis_ty	pelvis_tz	hip_flexion_r	hip_adduction_r	hip_rotation_r	knee_angle_r	knee_angle_r_beta	ankle_angle_r	subtalar_angle_r	mtp_angle_r	hip_flexion_l	hip_adduction_l	hip_rotation_l	knee_angle_l	knee_angle_l_beta	ankle_angle_l	subtalar_angle_l	mtp_angle_l	lumbar_extension	lumbar_bending	lumbar_rotation	arm_flex_r	arm_add_r	arm_rot_r	elbow_flex_r	pro_sup_r	arm_flex_l	arm_add_l	arm_rot_l	elbow_flex_l	pro_sup_l
      0.00000000	     -2.31265520	      2.99647524	      3.39485029	     -0.21547264	      1.10464209	     -0.24626003	     28.63152041	     -2.21628060	     -5.03298787	      5.59570750	      0.09766352	      2.18422527	     -2.56457030	     -4.24776502	    -16.97148302	      5.42172415	     -3.77164231	     10.24650807	      0.17883530	     12.28861110	      6.04245754	     -4.24776502	    -12.77002120	     -5.88843982	     -8.32543944	    -17.46659866	     -6.24755225	     -8.58992662	     49.48218496	    107.68819123	     -7.64958283	    -10.12190957	     -6.39567022	     45.61518599	    105.63435757
      0.01000000	     -2.27702832	      2.79217152	      3.81060835	     -0.20225334	      1.10441353	     -0.24637274	     28.27759168	     -2.13887413	     -5.55662391	      5.93402967	      0.10356836	      0.83730756	     -2.84441654	     -4.27723172	    -17.04345079	      4.93474973	     -3.87595716	     11.34231189	      0.19796069	     11.29625151	      5.76330857	     -4.27723172	    -12.66856349	     -5.12792200	     -8.39264780	    -17.51355106	     -6.24374163	     -8.58584860	     49.28605039	    107.89177966	     -8.03326508	     -9.81913921	     -6.42565852	     45.02610779	    105.71464597
      0.02000000	     -2.44239609	      2.58001038	      4.15126899	     -0.18913345	      1.10415607	     -0.24636729	     28.05324338	     -1.95844734	     -5.11179109	      6.10577549	      0.10656589	     -1.62784647	     -4.71923879	     -4.42804070	    -16.92565128	      4.51860340	     -3.60800288	     12.34617903	      0.21548147	     10.30643459	      5.15350704	     -4.42804070	    -12.30062006	     -4.39719889	     -8.39232710	    -17.48170301	     -6.25910969	     -8.58974843	     48.75912564	    108.85062936	     -8.38559538	     -9.49049867	     -6.59817704	     44.15539705	    106.25862684
      0.03000000	     -2.44716005	      2.31351634	      4.42312272	     -0.17595436	      1.10438972	     -0.24634868	     27.81324328	     -1.79649514	     -5.53014799	      6.64012030	      0.11589196	     -2.85691704	     -4.77920984	     -4.46310962	    -16.81074487	      3.99198620	     -3.80156503	     13.59707240	      0.23731368	      9.13074664	      4.91171233	     -4.46310962	    -12.14208274	     -3.58995786	     -8.30200292	    -17.44421984	     -6.26643139	     -8.71241723	     48.40113892	    109.00884474	     -8.78513033	     -9.13732153	     -6.71497205	     43.61243485	    106.32712592
      0.04000000	     -2.39675977	      2.04205635	      4.60071050	     -0.16292186	      1.10514593	     -0.24622519	     27.55530239	     -1.61274370	     -5.82424923	      7.31099002	      0.12760085	     -3.92543909	     -4.97114343	     -4.48919363	    -16.58979579	      3.46736530	     -4.06108753	     15.07834701	      0.26316680	      7.76041405	      4.59862329	     -4.48919363	    -12.08051382	     -2.78492458	     -8.09559196	    -17.36687418	     -6.28637053	     -8.82300865	     48.02611291	    109.11637057	     -9.13035679	     -8.76540768	     -6.85310068	     43.08628724	    106.36349077
      0.05000000	     -2.33536961	      1.70397313	      4.65286399	     -0.14996587	      1.10637460	     -0.24599138	     27.34008013	     -1.33850659	     -6.05303608	      8.12897879	      0.14187744	     -4.95216652	     -5.25991662	     -4.51721606	    -16.22090987	      2.88459449	     -4.47067059	     16.76258060	      0.29256222	      6.15115208	      4.16679123	     -4.51721606	    -12.04180992	     -1.90885727	     -7.77330413	    -17.22576407	     -6.33355295	     -8.98820975	     47.64234096	    109.22601496	     -9.46229092	     -8.34607920	     -7.03490813	     42.57534746	    106.40886881
      0.06000000	     -2.34856152	      1.37505253	      4.60233777	     -0.13724375	      1.10797279	     -0.24566074	     27.20802152	     -1.01669212	     -5.81954872	      8.98181295	      0.15676221	     -6.28784231	     -6.32477916	     -4.66244668	    -15.60728589	      2.36049452	     -4.77488234	     18.65329743	      0.32556146	      4.20700861	      3.27937688	     -4.66244668	    -11.95032040	     -1.06691269	     -7.32389097	    -17.09722932	     -6.34955967	     -9.37593688	     47.26270465	    109.82059672	     -9.78401850	     -7.86320553	     -7.45732455	     42.04690307	    106.88497394
      0.07000000	     -2.11116559	      1.01876947	      4.52611990	     -0.12458100	      1.11020794	     -0.24529015	     26.82957175	     -0.70599191	     -6.07533314	      9.93910244	      0.17347006	     -6.62624546	     -6.31468820	     -4.68700622	    -15.05831781	      1.70099398	     -5.44066221	     20.86467921	      0.36415735	      2.34159281	      2.90618974	     -4.68700622	    -12.19529114	     -0.17464289	     -6.85258935	    -16.94223616	     -6.44668482	     -9.55270798	     47.05645900	    109.87901856	    -10.15417617	     -7.47650647	     -7.57437116	     41.83262225	    106.94649058
      0.08000000	     -2.01467567	      0.60740303	      4.41400684	     -0.11209768	      1.11251623	     -0.24490141	     26.61457455	     -0.33598494	     -6.28613382	     10.92813667	      0.19073197	     -6.88079463	     -6.21942353	     -4.72291520	    -14.21190249	      0.99456761	     -6.05663039	     23.26773662	      0.40609861	      0.24904433	      2.22896127	     -4.72291520	    -12.28619954	      0.77142954	     -6.34878764	    -16.82592066	     -6.52488988	     -9.88701160	     46.97917739	    109.97179403	    -10.56665346	     -7.02339963	     -7.82570444	     41.68247517	    107.06074884
      0.09000000	     -1.86863224	      0.26785888	      4.35549130	     -0.09986481	      1.11503545	     -0.24452085	     26.27958670	     -0.03626042	     -6.49550694	     11.80065067	      0.20596021	     -6.86347848	     -6.13656320	     -4.75292232	    -13.25231461	      0.30788926	     -6.60332109	     25.91399808	      0.45228459	     -1.89287673	      1.48565417	     -4.75292232	    -12.46112020	      1.63221667	     -5.89793674	    -16.73650997	     -6.61144437	    -10.19261194	     47.05419157	    110.05666992	    -11.00839377	     -6.64839143	     -8.02967808	     41.70546198	    107.18476607
      0.10000000	     -1.82798197	     -0.05271770	      4.35192112	     -0.08780115	      1.11748272	     -0.24417169	     25.99613442	      0.24317832	     -6.72151943	     12.55273743	      0.21908660	     -6.68469088	     -5.98160977	     -4.78609877	    -12.06370373	     -0.38357622	     -7.02382473	     28.67647492	      0.50049891	     -4.16696345	      0.51055072	     -4.78609877	    -12.56628586	      2.47253318	     -5.51793850	    -16.72241043	     -6.72770152	    -10.53173768	     47.29542009	    110.16220983	    -11.54198272	     -6.32485945	     -8.23552824	     41.91063086	    107.35277847
      0.11000000	     -1.83694242	     -0.13412494	      4.43129375	     -0.07614596	      1.11991971	     -0.24403767	     25.73843179	      0.24662682	     -6.96302949	     13.27625045	      0.23171428	     -6.24642873	     -5.60518794	     -4.88014428	    -10.74153827	     -0.73283479	     -6.96140964	     31.46543381	      0.54917542	     -6.84585130	     -1.19762363	     -4.88014428	    -12.62436985	      3.04997341	     -5.27844856	    -16.68853625	     -6.72773835	    -10.90231587	     47.62748952	    110.46309828	    -12.02804015	     -5.97621000	     -8.58009294	     42.31159925	    107.82093373
      0.12000000	     -1.82461898	     -0.32168977	      4.62509904	     -0.06459529	      1.12228477	     -0.24378066	     25.33681879	      0.39084088	     -7.18843845	     13.75818760	      0.24012567	     -5.85862173	     -5.52400903	     -4.95788779	     -9.31687116	     -1.32693268	     -7.05765391	     34.37193316	      0.59990340	     -9.31009915	     -2.37995861	     -4.95788779	    -12.69115695	      3.72383982	     -5.13532495	    -16.68702851	     -6.83384093	    -11.00577810	     48.03524045	    110.67795411	    -12.57804233	     -5.81747039	     -8.59857290	     42.83510245	    108.19808047
      0.13000000	     -1.84483311	     -0.46537231	      4.90868858	     -0.05328732	      1.12454179	     -0.24357433	     24.90095962	      0.49574076	     -7.40618701	     14.10559896	      0.24618914	     -5.44790131	     -5.60909903	     -5.02788617	     -7.78158207	     -1.87140166	     -6.98305030	     37.26452782	      0.65038870	    -11.90745064	     -3.67074444	     -5.02788617	    -12.72181995	      4.34158013	     -5.09171183	    -16.67798281	     -6.95930187	    -11.03139934	     48.47479890	    110.83150808	    -13.11867248	     -5.74004602	     -8.48687221	     43.45407386	    108.50614517
      0.14000000	     -1.76842592	     -0.68350678	      5.28726848	     -0.04207145	      1.12683323	     -0.24332632	     24.25967064	      0.70675141	     -7.62133224	     14.25902160	      0.24886687	     -4.94068974	     -5.83728189	     -5.05366355	     -6.29096995	     -2.56437067	     -6.87074825	     40.12435318	      0.70030207	    -14.16087904	     -4.28153877	     -5.05366355	    -12.82434895	      5.03685926	     -5.10864260	    -16.66437459	     -7.10674622	    -10.99848194	     48.92505599	    110.89307366	    -13.59691542	     -5.73399712	     -8.23683911	     44.04689265	    108.65709662
      0.15000000	     -1.79263880	     -0.80568432	      5.72344145	     -0.03117725	      1.12888737	     -0.24312813	     23.72963209	      0.80137560	     -7.83860997	     14.41625848	      0.25161118	     -4.52984039	     -6.13674366	     -5.08333596	     -4.63983456	     -3.06582836	     -6.52441103	     42.90723042	      0.74887244	    -16.58033568	     -5.51852852	     -5.08333596	    -12.77973617	      5.58485353	     -5.21706451	    -16.64278611	     -7.26227196	    -10.89753612	     49.37962572	    110.94828734	    -14.07280802	     -5.86175197	     -7.89046783	     44.79124433	    108.82175313
      0.16000000	     -1.86620720	     -0.72083510	      6.16236175	     -0.02061990	      1.13095851	     -0.24319003	     23.26734494	      0.66905983	     -7.93421387	     14.61673722	      0.25511019	     -4.25669954	     -6.52686402	     -5.15885102	     -2.96912746	     -3.19951355	     -6.02804556	     45.43059916	      0.79291354	    -19.29803855	     -7.59091695	     -5.15885102	    -12.75489162	      5.90471243	     -5.33773048	    -16.52454750	     -7.46662958	    -10.60997126	     49.59523761	    110.97843963	    -14.48743583	     -5.96439670	     -7.46406316	     45.42629167	    109.01215207
      0.17000000	     -1.72366970	     -0.81879365	      6.62872555	     -0.01001634	      1.13318215	     -0.24309022	     22.48171402	      0.78112388	     -8.06665775	     14.61637829	      0.25510393	     -3.74927083	     -6.84120335	     -5.18213112	     -1.50724338	     -3.61492406	     -5.58656340	     47.92409583	      0.83643326	    -20.59047779	     -8.23842765	     -5.18213112	    -12.88605345	      6.41737410	     -5.40181971	    -16.44712990	     -7.65958325	    -10.49386823	     49.91038542	    110.98749066	    -14.80183735	     -6.08528162	     -7.09453425	     46.00847638	    109.11885908
      0.18000000	     -1.75309535	     -0.73261064	      7.02645305	      0.00024515	      1.13520017	     -0.24309248	     21.96649173	      0.67679176	     -8.12666857	     14.77892979	      0.25794098	     -3.53002574	     -7.21023236	     -5.24195779	      0.10996936	     -3.67251379	     -5.10543418	     50.22632500	      0.87661474	    -21.90996997	     -9.90398038	     -5.24195779	    -12.84165131	      6.67284902	     -5.46072621	    -16.32439152	     -7.89150212	    -10.19853093	     50.08478535	    110.93807472	    -15.11873007	     -6.29908413	     -6.55062404	     46.60500399	    109.23316133
